<mxfile host="Electron" agent="Mozilla/5.0 (Windows NT 10.0; Win64; x64) AppleWebKit/537.36 (KHTML, like Gecko) draw.io/25.0.2 Chrome/128.0.6613.186 Electron/32.2.5 Safari/537.36" version="25.0.2">
  <diagram name="Page-1" id="FckbbgUA_ycBtha7Nfw7">
    <mxGraphModel dx="810" dy="537" grid="0" gridSize="10" guides="1" tooltips="1" connect="1" arrows="1" fold="1" page="1" pageScale="1" pageWidth="850" pageHeight="1100" math="0" shadow="0">
      <root>
        <mxCell id="0" />
        <mxCell id="1" parent="0" />
        <mxCell id="f_B0i8LunEfuUYC8yh6b-1" value="logs" style="rounded=1;whiteSpace=wrap;html=1;" vertex="1" parent="1">
          <mxGeometry x="350" y="420" width="120" height="60" as="geometry" />
        </mxCell>
        <mxCell id="f_B0i8LunEfuUYC8yh6b-2" value="shared" style="rounded=1;whiteSpace=wrap;html=1;" vertex="1" parent="1">
          <mxGeometry x="350" y="340" width="120" height="60" as="geometry" />
        </mxCell>
        <mxCell id="f_B0i8LunEfuUYC8yh6b-3" value="layout" style="rounded=0;whiteSpace=wrap;html=1;" vertex="1" parent="1">
          <mxGeometry x="170" y="240" width="120" height="60" as="geometry" />
        </mxCell>
        <mxCell id="f_B0i8LunEfuUYC8yh6b-4" value="custom template" style="rounded=0;whiteSpace=wrap;html=1;" vertex="1" parent="1">
          <mxGeometry x="520" y="240" width="120" height="60" as="geometry" />
        </mxCell>
        <mxCell id="f_B0i8LunEfuUYC8yh6b-5" value="proxy" style="rounded=0;whiteSpace=wrap;html=1;" vertex="1" parent="1">
          <mxGeometry x="350" y="130" width="120" height="60" as="geometry" />
        </mxCell>
        <mxCell id="f_B0i8LunEfuUYC8yh6b-6" value="" style="endArrow=classic;html=1;rounded=0;exitX=0;exitY=0.5;exitDx=0;exitDy=0;entryX=0.5;entryY=0;entryDx=0;entryDy=0;" edge="1" parent="1" source="f_B0i8LunEfuUYC8yh6b-5" target="f_B0i8LunEfuUYC8yh6b-3">
          <mxGeometry width="50" height="50" relative="1" as="geometry">
            <mxPoint x="300" y="160" as="sourcePoint" />
            <mxPoint x="240" y="200" as="targetPoint" />
          </mxGeometry>
        </mxCell>
        <mxCell id="f_B0i8LunEfuUYC8yh6b-7" value="" style="endArrow=classic;html=1;rounded=0;exitX=1;exitY=0.5;exitDx=0;exitDy=0;entryX=0.5;entryY=0;entryDx=0;entryDy=0;" edge="1" parent="1" source="f_B0i8LunEfuUYC8yh6b-5" target="f_B0i8LunEfuUYC8yh6b-4">
          <mxGeometry width="50" height="50" relative="1" as="geometry">
            <mxPoint x="380" y="575" as="sourcePoint" />
            <mxPoint x="520" y="620" as="targetPoint" />
          </mxGeometry>
        </mxCell>
        <mxCell id="f_B0i8LunEfuUYC8yh6b-8" value="pod" style="text;html=1;align=center;verticalAlign=middle;whiteSpace=wrap;rounded=0;fontStyle=2" vertex="1" parent="1">
          <mxGeometry x="243" y="235" width="60" height="30" as="geometry" />
        </mxCell>
        <mxCell id="f_B0i8LunEfuUYC8yh6b-9" value="pod" style="text;html=1;align=center;verticalAlign=middle;whiteSpace=wrap;rounded=0;fontStyle=2" vertex="1" parent="1">
          <mxGeometry x="424" y="125" width="60" height="30" as="geometry" />
        </mxCell>
        <mxCell id="f_B0i8LunEfuUYC8yh6b-10" value="pod" style="text;html=1;align=center;verticalAlign=middle;whiteSpace=wrap;rounded=0;fontStyle=2" vertex="1" parent="1">
          <mxGeometry x="596" y="234" width="60" height="30" as="geometry" />
        </mxCell>
        <mxCell id="f_B0i8LunEfuUYC8yh6b-11" value="" style="endArrow=classic;html=1;rounded=0;exitX=0.5;exitY=1;exitDx=0;exitDy=0;entryX=0;entryY=0.5;entryDx=0;entryDy=0;" edge="1" parent="1" source="f_B0i8LunEfuUYC8yh6b-3" target="f_B0i8LunEfuUYC8yh6b-2">
          <mxGeometry width="50" height="50" relative="1" as="geometry">
            <mxPoint x="400" y="510" as="sourcePoint" />
            <mxPoint x="450" y="460" as="targetPoint" />
          </mxGeometry>
        </mxCell>
        <mxCell id="f_B0i8LunEfuUYC8yh6b-12" value="" style="endArrow=classic;html=1;rounded=0;exitX=0.5;exitY=1;exitDx=0;exitDy=0;entryX=0;entryY=0.5;entryDx=0;entryDy=0;" edge="1" parent="1" source="f_B0i8LunEfuUYC8yh6b-3" target="f_B0i8LunEfuUYC8yh6b-1">
          <mxGeometry width="50" height="50" relative="1" as="geometry">
            <mxPoint x="400" y="510" as="sourcePoint" />
            <mxPoint x="450" y="460" as="targetPoint" />
          </mxGeometry>
        </mxCell>
        <mxCell id="f_B0i8LunEfuUYC8yh6b-13" value="" style="endArrow=classic;html=1;rounded=0;exitX=0.5;exitY=1;exitDx=0;exitDy=0;entryX=1;entryY=0.5;entryDx=0;entryDy=0;" edge="1" parent="1" source="f_B0i8LunEfuUYC8yh6b-4" target="f_B0i8LunEfuUYC8yh6b-2">
          <mxGeometry width="50" height="50" relative="1" as="geometry">
            <mxPoint x="570" y="575" as="sourcePoint" />
            <mxPoint x="320" y="620" as="targetPoint" />
          </mxGeometry>
        </mxCell>
        <mxCell id="f_B0i8LunEfuUYC8yh6b-14" value="" style="endArrow=classic;html=1;rounded=0;exitX=0.5;exitY=1;exitDx=0;exitDy=0;entryX=1;entryY=0.5;entryDx=0;entryDy=0;" edge="1" parent="1" source="f_B0i8LunEfuUYC8yh6b-4" target="f_B0i8LunEfuUYC8yh6b-1">
          <mxGeometry width="50" height="50" relative="1" as="geometry">
            <mxPoint x="640" y="385" as="sourcePoint" />
            <mxPoint x="500" y="515" as="targetPoint" />
          </mxGeometry>
        </mxCell>
        <mxCell id="f_B0i8LunEfuUYC8yh6b-15" value="pvc" style="text;html=1;align=center;verticalAlign=middle;whiteSpace=wrap;rounded=0;" vertex="1" parent="1">
          <mxGeometry x="424" y="340" width="60" height="30" as="geometry" />
        </mxCell>
        <mxCell id="f_B0i8LunEfuUYC8yh6b-16" value="pvc" style="text;html=1;align=center;verticalAlign=middle;whiteSpace=wrap;rounded=0;" vertex="1" parent="1">
          <mxGeometry x="410" y="420" width="60" height="30" as="geometry" />
        </mxCell>
      </root>
    </mxGraphModel>
  </diagram>
</mxfile>
